<svg width="32" height="32" viewBox="0 0 32 32" fill="none" xmlns="http://www.w3.org/2000/svg">
<rect width="32" height="32" rx="16" fill="#EBF5FF"/>
<rect x="1" y="1" width="30" height="30" rx="15" stroke="#5CB1FF" stroke-opacity="0.2" stroke-width="2"/>
<path fill="#5CB1FF" d="M16 8a8 8 0 1 1 0 16 8 8 0 1 1 0-16zm0 14.4a6.4 6.4 0 1 0 0-12.8 6.4 6.4 0 1 0 0 12.4zm1.2-11.2a1.2 1.2 0 1 0 -2.4 0 1.2 1.2 0 1 0 2.4 0zM16 21.6c1.2 0 2.1-.9 2.1-2.1 0-.5-.2-1-.5-1.4l2.3-5.5-1.7-.7-2.3 5.5c-1.1.1-2 1-2 2.1 0 1.2.9 2.1 2.1 2.1zM12.8 12a1.2 1.2 0 1 0 -2.4 0 1.2 1.2 0 1 0 2.4 0zM10.4 17.2a1.2 1.2 0 1 0 0-2.4 1.2 1.2 0 1 0 0 2.4zm12-1.2a1.2 1.2 0 1 0 -2.4 0 1.2 1.2 0 1 0 2.4 0z"/>
</svg>